<svg xmlns="http://www.w3.org/2000/svg" viewBox="0 0 500 500"><style>@media (prefers-color-scheme:light){path{fill:#161616!important}rect{fill:#ededed!important}}</style><path d="M25 25h450v450H25z" style="fill:#161616"/><path d="M349.386 125.102q1.188-1.782 0 2.672-1.187 4.455-6.532 20.49-2.97 7.127-5.049 13.957-2.078 6.829-2.672 8.611-.594 1.782-2.376 8.909-1.781 7.126-4.751 15.441-5.345 19.599-9.799 36.228t-8.315 32.367q-3.86 15.739-7.424 32.071-3.563 16.332-7.72 35.931-1.188 4.157-2.079 9.502-.891 5.345-2.079 9.503-2.969 11.878-5.048 22.271-2.078 10.393-3.86 20.192-1.782 9.8-3.266 20.193l-3.267 22.865q-1.188 6.533-1.782 13.066-.594 6.533-1.187 9.502-1.188 2.97-1.782 8.909-.594 5.939-1.188 11.284-1.188 4.751-1.782 9.799-.593 5.048-1.187 6.83-1.188 2.969-1.485 11.284-.297 8.315-.594 17.223-.297 8.909 0 15.144.297 6.236.891 4.455 1.782-4.158 2.375-2.079.594 2.079-1.187 6.83-1.782 5.345-8.018 6.83-6.236 1.484-13.066 1.188-6.83-.297-12.175-1.485-5.345-1.188-5.345-.594 0 1.188-1.782 0-4.751-4.751-11.284-32.071-1.187-6.533-2.672-12.768-1.485-6.236-2.079-8.612-.594-2.376-1.485-6.533-.89-4.157-1.484-8.314-1.188-3.564-2.673-9.503L201.506 466q-1.188-5.345-3.564-16.332-2.375-10.987-5.048-23.162-2.672-12.175-5.048-23.459-2.376-11.284-3.563-16.63-3.564-19.004-5.642-31.179-2.079-12.175-3.267-15.739-.594-2.375-1.782-8.017-1.187-5.642-2.375-12.175-5.345-26.726-10.69-50.778-5.346-24.053-10.097-43.652-1.187-4.751-2.969-10.987-1.782-6.236-2.97-10.987-1.187-4.751-2.969-11.581-1.782-6.83-2.97-12.175-2.375-8.315-5.048-16.926-2.672-8.612-9.205-29.398-1.188-3.564-2.97-8.315-1.781-4.751-4.157-9.799-2.376-5.048-4.751-9.503-2.376-4.454-3.564-6.83-1.781-2.969-2.375-2.969-.594 0-1.782 2.376-1.782 3.563-2.079 0-.297-3.564 1.782-8.612t6.236-9.205q4.157-4.158 11.284-1.782 5.939 1.782 12.175 7.424 6.236 5.642 7.424 8.611 1.188 2.97 2.969 2.97 1.782 0 1.782 1.781 0 2.376 1.188 2.376.594 0 1.782 1.782 1.187 1.781 2.375 4.157 1.782 2.376 3.267 5.345 1.484 2.97 2.672 4.157 1.188 1.188 2.97 5.642 1.781 4.455 2.969 8.612 1.782 4.751 3.267 8.018 1.484 3.266 2.078 4.454 0 .594.594 2.375l1.188 3.564 1.782 5.345q1.187 3.563 2.375 6.533 1.188 2.969 3.267 8.611 2.078 5.642 3.266 9.8 1.188 4.751 2.376 8.314 1.187 3.564 1.781 4.158 1.188 1.187 1.188 5.345 0 4.157 1.188 5.345 1.188 1.187 1.188 5.345 0 4.751 1.781 5.345 1.188 1.188 1.188 4.751 0 2.97 1.188 4.157.594.594 1.485 4.158l2.078 8.314q1.188 4.751 2.079 8.909.891 4.157 1.485 4.751 1.188 1.188 1.188 5.345 0 4.751 1.187 4.751 1.782 0 1.782 4.751 0 1.782.297 4.455.297 2.672 1.485 5.048 1.188 1.781 1.782 4.454.593 2.673 1.187 4.454 1.782 12.472 3.564 17.223.594 1.188.891 3.564.296 2.375.89 4.751.594 2.376.891 5.642.297 3.266 1.485 6.236.594 2.969 1.782 10.393 1.187 7.424 2.375 15.145l2.079 14.55q.891 6.236 1.485 8.018.594 1.188 1.484 6.236.891 5.048 1.485 10.987 1.188 5.939 1.782 9.799.594 3.86 1.782 3.267 1.187-.594.593-5.346-.593-4.751-1.781-13.065-1.782-4.751.594-4.751 1.187 0 1.187 4.157 0 6.533 1.485 3.86 1.485-2.672 3.861-13.956 1.187-5.939 3.563-15.739 2.376-9.799 4.751-19.895 2.376-10.097 5.048-19.896 2.673-9.799 4.455-16.926 1.187-5.345 2.672-11.284 1.485-5.939 2.673-8.909 3.563-13.066 8.017-27.913 4.454-14.847 9.206-29.695 4.751-14.847 9.205-28.507 4.454-13.66 8.612-24.35 2.969-8.315 4.751-13.957 1.782-5.642 1.782-6.236 0-.593 1.484-4.454 1.485-3.86 3.861-9.205 2.375-5.345 5.048-11.878 2.672-6.533 4.454-10.69 5.345-12.472 11.581-26.429 6.236-13.956 12.175-26.131 5.939-12.175 10.987-21.678 5.048-9.502 8.018-13.066 3.563-4.157 4.157-2.375.594 1.782-2.376 6.533-3.563 5.345-10.69 20.786-7.127 15.442-14.847 32.665-7.721 17.223-13.957 32.961-6.236 15.738-8.017 21.084l-2.673 8.017q-1.485 4.454-6.236 15.738-1.188 4.752-3.266 10.394-2.079 5.642-3.267 9.205-1.188 4.157-3.266 10.69-2.079 6.533-3.861 11.284-1.781 5.345-3.86 12.175-2.079 6.83-3.266 10.987l-2.97 10.394q-1.782 6.236-2.969 10.987-2.97 10.096-2.97 11.878.594.594-1.782 6.533-1.187 2.375-2.078 5.345-.891 2.969-.891 4.157 0 1.188-.594 3.86-.594 2.673-1.782 5.642-2.969 4.752-2.969 8.909 0 4.157-1.782 4.751-.594 1.782-1.782 7.721 0 2.969-.593 5.642-.594 2.672-1.188 4.454-.594 1.782-1.188 4.454-.594 2.673-1.188 5.048-.594 4.752-2.672 14.551-2.079 9.799-3.267 12.175-.594 1.188-1.782 5.048-1.187 3.86-2.078 8.018-.891 4.157-1.188 7.72-.297 3.564-.297 4.158 0 1.188-1.188 4.751-1.188 1.188-1.485 4.157-.296 2.97-.89 5.939-.594 2.97-.891 5.939-.297 2.97-.891 4.751-.594 1.782-1.188 6.236-.594 4.455-.594 9.503v8.908q0 3.861.594 3.861 1.188 0 3.267-6.533 2.078-6.533 2.078-12.472.594-2.97.891-6.533.297-3.564.891-5.345 1.782-3.564 1.782-6.533 0-2.376 1.781-5.345 1.188-2.376 2.673-10.987 1.485-8.612 1.485-14.551 0-2.375.594-4.454.593-2.079 1.187-3.267 1.188-2.375 2.376-8.611 1.188-6.236 1.188-9.799 0-4.158 1.188-4.158.593 0 1.781-7.127 0-2.969 1.188-6.532 1.188-3.564 2.376-6.533 2.969-6.533 2.375-8.909-.594-1.781 1.188-4.751 1.782-2.376 3.266-6.533 1.485-4.157.297-4.157-1.781 0-1.484-2.97.297-2.969 2.078-4.157 2.376-1.188 2.376-4.751 0-3.564 1.188-4.751.594-.594 3.563-10.097 2.97-9.502 6.533-21.083 3.563-11.581 6.533-21.677 2.969-10.097 2.969-11.878 0-4.158 1.188-4.158t1.188-3.563q.594-1.782 1.782-5.642 1.187-3.86 2.375-6.83 4.751-13.066 6.533-19.005 1.782-5.939 2.376-7.72 0-1.188.891-3.861.89-2.672 2.078-5.642 1.188-2.375 2.376-5.642 1.188-3.266 2.375-5.642 1.188-4.751 3.267-10.69 2.079-5.939 4.157-11.284 2.079-5.345 3.86-9.205 1.782-3.861 2.97-5.643.594-1.187 2.673-5.939 2.078-4.751 5.048-11.284 2.375-6.532 4.751-12.175 2.375-5.642 3.563-7.423 2.376-4.751 2.376-5.939 0-.594 1.188-2.673 1.187-2.078 2.375-4.454t2.376-4.157q1.188-1.782 1.188-2.376 0-.594 1.484-3.86 1.485-3.267 3.564-6.83 2.078-3.564 3.86-6.83t2.97-3.86q2.969-2.97 1.781 1.781-1.187 4.752-8.908 21.381-4.751 10.096-7.424 16.926l-5.345 13.66q-2.673 6.829-6.236 15.144-3.563 8.315-8.908 21.974-4.752 11.284-8.612 21.678-3.86 10.393-5.048 13.956l-2.97 8.909-2.969 8.908q-4.157 9.503-4.157 14.848 0 3.563-2.376 9.502-1.188 1.782-3.266 7.127-2.079 5.345-3.861 11.284-1.781 5.939-2.969 10.393-1.188 4.454-.594 5.048.594 1.188-1.188 2.97-1.188 2.969-2.376 7.72-1.187 4.752-2.672 10.394t-2.673 8.611q-1.187 2.376-1.187 7.127 0 3.563-2.376 8.315-1.188 2.375-1.782 4.751-.594 2.375-1.188 3.563 0 1.782-1.187 6.236-1.188 4.454-2.376 9.206-1.782 4.751-2.969 9.502-1.188 4.751-1.188 7.127-.594 2.969-.891 5.642-.297 2.672-1.485 3.86-1.188 3.563-1.188 4.751v1.782l-1.187 4.751q0 2.376-1.485 8.909-1.485 6.533-3.267 13.659-1.781 7.127-2.969 13.363t-1.188 7.424q0 1.782-.297 5.345-.297 3.563-1.485 7.127-1.781 6.533-2.375 10.69l-1.782 12.472q-.594 2.969-1.188 8.314-.594 5.345-1.187 10.097-1.782 9.502-3.267 21.974-1.485 12.472-2.672 24.35-1.188 11.878-1.485 21.38-.297 9.502.297 13.066 1.188 5.345 1.484 2.969.297-2.375.891-16.629 1.188-28.507 7.127-67.407 5.939-38.901 14.848-76.316 1.187-4.752 3.266-14.848 2.079-10.096 3.86-19.598 2.376-9.503 4.158-18.114 1.781-8.612 2.969-11.581 16.629-62.36 30.289-105.714 13.66-43.355 27.319-76.613 1.188-2.97 3.861-9.503 2.672-6.533 5.048-12.472 11.284-27.319 17.817-42.167 6.533-14.847 7.721-13.659 1.187 0-1.188 6.533-2.97 4.751-2.97 9.502l-2.078 8.315q-1.485 5.939-3.861 13.065-2.375 7.127-4.454 13.957-2.079 6.83-3.86 10.393-1.188 2.376-1.782 4.158-.594 1.781-1.188 2.969-.594 1.782-1.188 2.97 0 .593-4.157 10.096-5.939 13.066-11.878 29.992-5.939 16.926-14.847 46.621-4.752 16.035-8.315 28.21-3.563 12.175-3.563 13.363 0 1.781-1.188 1.781-2.376 0-1.188 2.376 0 1.188-1.188 5.939l-4.157 16.629q-1.188 2.97-1.782 5.642-.594 2.673-.594 3.861-1.187 5.345-2.672 11.581t-2.673 6.236q-1.188 0 0 2.969 0 2.97-.594 2.376-1.781-.594-1.781 2.375 0 2.376-.594 6.236-.594 3.861-1.188 7.424t-1.485 5.939q-.891 2.376-.891 1.782-1.781 0-.594 1.781.594.594-.593 6.83-1.188 6.236-3.564 14.551-2.375 10.69-4.157 18.411-1.782 7.72-3.267 15.738-1.484 8.018-2.969 17.52-1.485 9.502-3.267 22.568-8.314 52.263-5.938 49.888.593-.594.89-2.673.297-2.079.891-5.048 0-2.97.594-7.721.594-4.751 1.782-8.314 1.188-2.97 2.078-9.206.891-6.236 1.485-11.581 1.188-4.751 1.782-9.502.594-4.751 1.188-5.939.594-1.188.891-4.751.296-3.564.89-6.533l1.188-8.315q.594-4.157 1.485-9.502.891-5.345 2.672-13.066 1.782-7.721 4.158-19.005 3.563-16.629 5.642-25.834 2.078-9.206 4.157-17.52 2.079-8.315 4.454-18.114 2.376-9.8 7.127-27.023 4.751-18.411 11.581-40.385 6.83-21.974 11.581-37.416 8.315-25.537 11.581-34.149 3.267-8.611 4.454-9.799ZM184.283 338.906q.593-.594.593-2.97-1.187-2.376-1.187 1.188 0 1.188.297 1.782.297.593.297 0Zm5.345 18.41q2.375 0 2.375-1.187 0-1.782-2.375-1.782-1.782 0-1.782 1.782 0 1.187 1.782 1.187Zm4.157 20.193q1.782-2.969 0-4.751-1.782-2.376-1.782 2.969 0 4.158.297 4.455.297.296 1.485-2.673Zm23.162-23.756q0 1.782.594 5.939t1.485 8.018q.89 3.86 1.781 6.533.891 2.672.891 1.484.594-1.187 0-5.345-.594-4.157-1.782-8.908-2.969-11.878-2.969-7.721Zm.594 78.989q-.594-.594-.594.594 1.188 1.187 2.376 12.471 1.187 4.752 1.781 7.721.594 2.97.594 2.376.594 0 .297-3.267-.297-3.266-.891-8.017-1.188-4.752-1.781-8.018-.594-3.266-1.782-3.86Zm-3.564-92.649q0 1.188.297 1.782.297.594.297 0 .594-.594.594-2.969-1.188-2.376-1.188 1.187Zm0 73.05q0 1.188.297 1.782.297.594.297 0 .594-.594.594-2.97-1.188-2.375-1.188 1.188Zm-5.938-42.761q-.594-1.781-.594 2.376t.594 2.969q1.187-2.969 0-5.345Zm-3.564-18.411q-1.188-2.375-1.188.594-.594 2.97.297 4.158.891 1.187 2.079-.594 0-1.782-1.188-4.158Zm-2.969 76.613q0 2.376 1.187 1.188 1.782 0 1.782-2.375 0-1.188-1.782-1.188-1.187 0-1.187 2.375Zm1.187 6.533q0 1.782 2.376 1.782 1.782 0 1.782-1.782 0-1.188-1.782-1.188-2.376 0-2.376 1.188Zm2.97 4.751q-1.188 1.782-.297 6.236.891 4.455 2.079 4.455 1.187 0 1.187-1.188 0-2.97-.89-6.83-.891-3.86-2.079-2.673Zm2.376 20.787q.593 2.969 1.781 2.969 1.188-1.187 0-4.157-3.563-5.345-1.781 1.188Zm2.375 9.502q.594 0 1.782-1.188 0-1.781-.594-1.781-1.782 0-1.782 1.781 0 .594.594 1.188Zm13.66 65.329q.594 0 .297-4.157t-.891-10.096q-.594-5.939-1.485-10.097-.891-4.157-2.079-4.751-1.781-1.782-.593-5.345v-3.266q0-2.079-1.188-3.267-.594-1.188-1.188-5.048-.594-3.86-1.782-7.424-.594-3.563-1.484-6.236-.891-2.672-.891-3.266-1.188-.594-.594 5.939t1.781 7.721q1.188 2.375 1.188 7.126 0 2.376 1.188 8.909 1.188 6.533 2.97 14.253 1.781 7.721 2.969 13.066 1.188 5.345 1.188 5.939 0 .594.297.594t.297-.594Zm-1.782-146.099q1.782 9.502 2.97 8.315 1.781-1.782 0-4.752-1.188-2.375-2.376-8.314-1.188-5.345-1.782-5.345 0 .594.297 3.563.297 2.97.891 6.533Zm4.751 21.38q.594 0 .594-2.375 0-1.782-1.188-1.782-1.781 0-.594 1.782 0 1.188.297 1.188t.297.593q0 .594.594.594Zm36.228 81.365q1.782-13.66 2.673-24.35.891-10.691-.297-9.503-.594.594-1.782 8.612-1.188 8.017-2.376 18.114-.593 3.563-1.187 9.799-.594 6.236-1.188 13.363t-.891 13.066q-.297 5.939-.297 8.314 0 8.315.594 5.642.594-2.672 1.782-13.956.594-5.346 1.187-13.957.594-8.612 1.782-15.144Z" style="fill:#ededed;line-height:770.911px;white-space:pre" transform="matrix(.91434 0 0 .67351 28.83 58.916)"/></svg>